/* XPM */
static char *_524071309943[] = {
/* columns rows colors chars-per-pixel */
"275 35 2 1 ",
"  c #00D8DA",
". c None",
/* pixels */
".                                                                                                                                                                                                                                                                                 .",
"  ...............................................................................................................................................................................................................................................................................  ",
" ................................................................................................................................................................................................................................................................................. ",
" ................................................................................................................................................................................................................................................................................. ",
" ................................................................................................................................................................................................................................................................................. ",
" ................................................................................................................................................................................................................................................................................. ",
" ................................................................................................................................................................................................................................................................................. ",
" ................................................................................................................................................................................................................................................................................. ",
" ................................................................................................................................................................................................................................................................................. ",
" ....................................................................................................................... .........................................................   ............................................................................................. ",
" .......................................................................................     ........................... ......................................................... . ............................................................................................. ",
" ....................................................................................... .... ........  ................ ........................................................  .  ............................................................................................ ",
" ....................................................................................... ..... ....... ................. ................................................          .         ..................................................................................... ",
" ....................................................................................... ..... ...... .................. ......................................................... . ............................................................................................. ",
" ....................................................................................... ..... ......................... .........................................................   ............................................................................................. ",
" ....................................................................................... ....  .....    ......    . .... .....    . .....    . .....    .....    ............ .................................................................................................... ",
" .......................................................................................      ..... .... ....  ...  .... ....  ...  ....  ...  .... .... ...  .. ...........   ................................................................................................... ",
" ....................................................................................... .  ......  ..... ..  ..... .... ...  ..... ...  ..... ...  ..... .. ..............  . ................................................................................................... ",
" ....................................................................................... .. ......  ..... .. ...... .... ... ...... ... ...... ...  ..... ..  ...........    .               ..................................................................................... ",
" ....................................................................................... ..  .....        .. ...... .... ... ...... ... ...... ...        ....  ............ . ................................................................................................... ",
" ....................................................................................... ...  .... ......... ...... .... ... ...... ... ...... ... ............. ...........   ................................................................................................... ",
" ....................................................................................... ....  ...  ........  ..... .... ...  ..... ...  ..... ...  ............  ................................................................................................................ ",
" ....................................................................................... ..... .... ....  ... ....  .... .... ....  .... ....  .... ....  .. ...  .....................   ........................................................................................ ",
" ....................................................................................... .....  ....     .....    . .... .....    . .....    . .....     ...     ...................... . ........................................................................................ ",
" .................................................................................................................. .......................... ..........................               .    ..................................................................................... ",
" .................................................................................................................. .......................... ........................................ .  ....................................................................................... ",
" ............................................................................................................ ..... .................... ..... ........................................   ........................................................................................ ",
" ............................................................................................................      .....................      .......................................... ......................................................................................... ",
" ................................................................................................................................................................................................................................................................................. ",
" ................................................................................................................................................................................................................................................................................. ",
" ................................................................................................................................................................................................................................................................................. ",
" ................................................................................................................................................................................................................................................................................. ",
" ................................................................................................................................................................................................................................................................................. ",
"  ...............................................................................................................................................................................................................................................................................  ",
".                                                                                                                                                                                                                                                                                 ."
};
