/* XPM */
static char *_524156607062[] = {
/* columns rows colors chars-per-pixel */
"275 35 16 1 ",
"  c #006868",
". c #007475",
"X c #007F80",
"o c #008989",
"O c #009192",
"+ c #009A9B",
"@ c #00A2A2",
"# c #00A9AA",
"$ c #00B0B1",
"% c #00B6B7",
"& c #00BDBE",
"* c #00C3C4",
"= c #00C8C9",
"- c #00CECF",
"; c #00D3D4",
": c #00D8DA",
/* pixels */
"                                                                                                                                                                                                                                                                                   ",
"                                                                                                                                                                                                                                                                                   ",
"                                                                                                                                                                                                                                                                                   ",
"                                                                                                                                                                                                                                                                                   ",
"                                                                                                                                                                                                                                                                                   ",
"                                                                                                                                                                                                                                                                                   ",
"                                                                                                                                                                                                                                                                                   ",
"                                                                                                                                                                                                                                                                                   ",
"                                         X@##@X                                                                                                                                                                                                                                    ",
"                                       X&:;**-:*X                                                                                                                                                                                                                                  ",
"                                      @;&o    X%*                   oX                                                                                                                                                                                                             ",
"                                     o;#        o                   *#                                                                                                                                                                                                             ",
"                                     *&                             *#                                                                                                                                                                                             #o      #o      ",
"                                    X:X                             *#                                                                                                                                                                                             =;o    %:+      ",
"                                    @-              #-:;#o*   *o$;:*;-*o  o&::=#     o&::=#    *O%;:*o                                                                                                                                                             .=;o  %:@       ",
"                                    #*             #;O .#=:   :*$ .O=%O. +:#. O=%   +:#. O=%   :-+ .%-                                                                                                                                                              .=;o%:@        ",
"                                    #*            X:O    %:   :*    *#  .;#    .-# .;#    .-#  :$   X:O                                                                                                                                                              .=::@         ",
"                                    +;            #-     +:   :@    *#  @-      @- @-      @-  :O    :O                                                                                                                                                               %:;o         ",
"                                    .:O           #*     O:   :O    *#  #*      O: #*      O:  :O    :O                                                                                                                                                              %:#=;o        ",
"                                     %=           #*     +:   :O    *#  #=      +; #=      +;  :O    :O                                                                                                                                                             %:@ .=;o       ",
"                                     .-&.       o o:.    %:   :O    *#  X:O     *% X:O     *%  :O    :O                                                                                                                                                            %:@   .=;o      ",
"                                      o=;#o  X@**  *%.  @;:   :O    *#   @;O  .%=.  @;O  .%=.  :O    :O                                                                                                                                                            &@     .&+      ",
"                                        #-::::-#.  .&;*=*+:   :O    *#    +-=*;%.    +-=*;%.   :O    :O                                                                                                                                                                            ",
"                                          .OOX       XOo                    oO.        oO.                                                                                                                                                                                         ",
"                                                                                                                                                                                                                                                                                   ",
"                                                                                                                                                                                                                                                                                   ",
"                                                                                                                                                                                                                                                                                   ",
"                                                                                                                                                                                                                                                                                   ",
"                                                                                                                                                                                                                                                                                   ",
"                                                                                                                                                                                                                                                                                   ",
"                                                                                                                                                                                                                                                                                   ",
"                                                                                                                                                                                                                                                                                   ",
"                                                                                                                                                                                                                                                                                   ",
"                                                                                                                                                                                                                                                                                   ",
":::::::::::::::::::::::::::::::::::::::::::::::::::::::::::::::::::::::::::::::::::::::::::::::::::::::::::::::::::::::::::::::::::::::::::::::::::::::::::::::::::::::::::::::::::::::::::::::::::::::::::::::::::::::::::::::::::::::::::::::::::::::::::::::::::::::::::::::::::"
};
