/* XPM */
static char *_524156342875[] = {
/* columns rows colors chars-per-pixel */
"275 35 16 1 ",
"  c #006868",
". c #007475",
"X c #007F80",
"o c #008989",
"O c #009192",
"+ c #009A9B",
"@ c #00A2A2",
"# c #00A9AA",
"$ c #00B0B1",
"% c #00B6B7",
"& c #00BDBE",
"* c #00C3C4",
"= c #00C8C9",
"- c #00CECF",
"; c #00D3D4",
": c #00D8DA",
/* pixels */
"                                                                                                                                                                                                                                                                                   ",
"                                                                                                                                                                                                                                                                                   ",
"                                                                                                                                                                                                                                                                                   ",
"                                                                                                                                                                                                                                                                                   ",
"                                                                                                                                                                                                                                                                                   ",
"                                                                                                                                                                                                                                                                                   ",
"                                                                                                                                                                                                                                                                                   ",
"                                                                                                Oo                                                                                                                                                                                 ",
"                                     O         oX                                             .;=*                                                                                                                                                                                 ",
"                                     *+        *#       @#                                    +;                                                                                                                                                                                   ",
"                                     *;o       *#      O:o                          oX  X;+   #*                                                                                                                                                                                   ",
"                                     *;;.      *#      =@                           *#  .&o   #*                                                                                                                                                                                   ",
"                                     *#%=.     *#     #%                            *#        #*                                                                                                                                                                   #o      #o      ",
"                                     *#.=%     *#                                   *#        #*                                                                                                                                                                   =;o    %:+      ",
"                                     *# .;$    *#    @=:;%.    #-:-#o*    #-:;#o* o*;-*o *o o*-;*$                                                                                                                                                                 .=;o  %:@       ",
"                                     *#  o;@   *#   #=O X%=.  $;O .#=:   #;O .#=: .O=%O. :O .O%=Oo                                                                                                                                                                  .=;o%:@        ",
"                                     *#   @:o  *#  X:o    =@ X:O    &:  X:O    %:   *#   :O   #*                                                                                                                                                                     .=::@         ",
"                                     *#    #;o *#  @;OOOOO%& #-     +:  #-     +:   *#   :O   #*                                                                                                                                                                      %:;o         ",
"                                     *#     %=.*#  #;******$ #*     O:  #*     O:   *#   :O   #*                                                                                                                                                                     %:#=;o        ",
"                                     *#     .=**#  #=        #*     +:  #*     +:   *#   :O   #*                                                                                                                                                                    %:@ .=;o       ",
"                                     *#      .;:#  o:X    O+ o:.    %:  o:.    %:   *#   :O   #*                                                                                                                                                                   %:@   .=;o      ",
"                                     *#       o;#   &=.  o;@  *&.  @-:   *%.  @;:   *#   :O   #*                                                                                                                                                                   &@     .&+      ",
"                                     *#        @#   .%:*=;@   .*;*-*+:   .&;*=*+:   *#   :O   #*                                                                                                                                                                                   ",
"                                                X     .OO       XOX O:     XOo                                                                                                                                                                                                     ",
"                                                             X#X    @=                                                                                                                                                                                                             ",
"                                                              ;&.  X-#                                                                                                                                                                                                             ",
"                                                              o-;*=:$                                                                                                                                                                                                              ",
"                                                                oOO                                                                                                                                                                                                                ",
"                                                                                                                                                                                                                                                                                   ",
"                                                                                                                                                                                                                                                                                   ",
"                                                                                                                                                                                                                                                                                   ",
"                                                                                                                                                                                                                                                                                   ",
"                                                                                                                                                                                                                                                                                   ",
"                                                                                                                                                                                                                                                                                   ",
":::::::::::::::::::::::::::::::::::::::::::::::::::::::::::::::::::::::::::::::::::::::::::::::::::::::::::::::::::::::::::::::::::::::::::::::::::::::::::::::::::::::::::::::::::::::::::::::::::::::::::::::::::::::::::::::::::::::::::::::::::::::::::::::::::::::::::::::::::"
};
