/* XPM */
static char *_523450485884[] = {
/* columns rows colors chars-per-pixel */
"165 20 17 1 ",
"  c black",
". c #003D3D",
"X c #005656",
"o c #006868",
"O c #007777",
"+ c #008485",
"@ c #008F90",
"# c #009A9B",
"$ c #00A3A4",
"% c #00ACAD",
"& c #00B5B6",
"* c #00BDBD",
"= c #00C4C5",
"- c #00CBCC",
"; c #00D2D3",
": c #00D8DA",
"> c None",
/* pixels */
">:::::::::::::::::::::::::::::::::::::::::::::::::::::::::::::::::::::::::::::::::::::::::::::::::::::::::::::::::::::::::::::::::::::::::::::::::::::::::::::::::::>",
":::::::::::::::::::::::::::::::::::::::::::::::::::::::::::::::::::::::::::::::::::::::::::::::::::::::::::::::::::::::::::::::::::::::::::::::::::::::::::::::::::::",
":::::::::::::::::::::::::::::::::::::::::::::::::::::::::::::::::::::::::::::::::::::::::::::::::::::::::::::::::::::::::::::::::::::::::::::::::::::::::::::::::::::",
":::::::::::::::::::::::::::::::::::::::::::::::::::::::::::::::::::::::::::::::::::::::::::::::::::::::::::::::::::::::::::::::::::::::::::::::::::::::::::::::::::::",
":::::::::::::::::::::::::::::::::::::::::%&::::::::::::::::::::::::::::::::::::::::* :::::::::::::::::% O::: *:::::::::::::::::::::::::::::::::::::::::::::::::::::::",
":::::::::::::::::::::::::::::::::::::::::Oo:::+&:::::::::::::::*;::::::::::::::::::* :::::::::::::::::O#=+&: *:*;::::::::::::::::::::::::::::::::::::::::::::::::::::",
"::::::::::::::::::::::::::::::::::::::::=  *::$=::::::::::::::: *::::::::::::::::::* :::::::::::::::::O$:$=: *: *::::::::::::::::::::::::::::::::::::::::::::::::::::",
"::::::::::::::::::::::::::::::::::::::::@@+@::*;::%$$;::*;:;*:* $;;$$%::**$*::::-$$$ ::;$$%::%$%:::::=o@-*;: ** $;**$*;$$%::%$%::::::::::::::::::::::::::::::::::::::",
":::::::::::::::::::::::::::::::::::::::; =& -: *;oX$O.-: *:* :O o=.O#.#:  #=:::;.o#. :;.O#.#$.# $::::#.X% *: *O o=  #=.O#.#$.# $:::::::::::::::::::::::::::::::::::::",
":::::::::::::::::::::::::::::::::::::::$.$$ $: *%.;::O@: *:* :: *$ $$+.: $:::::$.;:% :$ $$+.$.&=::::::O$: *: *: *: $:$ $$+.$.&=::::::::::::::::::::::::::::::::::::::",
":::::::::::::::::::::::::::::::::::::::X@$$+.: *$O:::$O: *:* :: *$X$$$$: *:::::$O::* :$X$$$$:%X.=:::::O$: *: *: *: *:$X$$$$:%X.=:::::::::::::::::::::::::::::::::::::",
"::::::::::::::::::::::::::::::::::::::%.:::- % ** =:;X$:.$:$.:: *% =:*+: *:::::%.;:+ :% =:*+$$:X$:::::O$: *: *: *: *:% =:*+$$:X$:::::::::::::::::::::::::::::::::::::",
"::::::::::::::::::::::::::::::::::::::O$::::+o *:# O.O;:$ O #:: *:O O $: *::::::o.o  ::O O $% X *:::::O$: *: *: *: *::O O $% X *:::::::::::::::::::::::::::::::::::::",
"::::::::::::::::::::::::::::::::::::::*;::::-* *::-*=::::=*=:::*;::=*-::*;:::::::=*-*:::=*-::=*-::::::=-:*;:*;:*;:*;:::=*-::=*-::::::::::::::::::::::::::::::::::::::",
":::::::::::::::::::::::::::::::::::::::::::::: *:::::::::::::::::::::::::::::::::::::::::::::::::::::::::::::::::::::::::::::::::::::::::::::::::::::::::::::::::::::",
"::::::::::::::::::::::::::::::::::::::::::::::O=:::::::::::::::::::::::::::::::::::::::::::::::::::::::::::::::::::::::::::::::::::::::::::::::::::::::::::::::::::::",
":::::::::::::::::::::::::::::::::::::::::::::::::::::::::::::::::::::::::::::::::::::::::::::::::::::::::::::::::::::::::::::::::::::::::::::::::::::::::::::::::::::",
":::::::::::::::::::::::::::::::::::::::::::::::::::::::::::::::::::::::::::::::::::::::::::::::::::::::::::::::::::::::::::::::::::::::::::::::::::::::::::::::::::::",
":::::::::::::::::::::::::::::::::::::::::::::::::::::::::::::::::::::::::::::::::::::::::::::::::::::::::::::::::::::::::::::::::::::::::::::::::::::::::::::::::::::",
">:::::::::::::::::::::::::::::::::::::::::::::::::::::::::::::::::::::::::::::::::::::::::::::::::::::::::::::::::::::::::::::::::::::::::::::::::::::::::::::::::::>"
};
