/* XPM */
static char *_523450476093[] = {
/* columns rows colors chars-per-pixel */
"165 20 2 1 ",
"  c #00D8DA",
". c None",
/* pixels */
".                                                                                                                                                                   .",
"  .................................................................................................................................................................  ",
" ................................................................................................................................................................... ",
" ................................................................................................................................................................... ",
" .................................................................................................... .... ......................................................... ",
" .......................................... .... ................................................... .. .. ......................................................... ",
" ........................................... ................... ................................... ..... .. ...................................................... ",
" ......................................... . ................... ................................... ..... .. ...................................................... ",
" ......................................... .. .. .. ... .. ..... .. .. ..  ..... .. .. .. .... ..... .. .. .. ..  .. .. .... ....................................... ",
" ......................................... .. .. ...... .. ..... .. .. .. ............ .. .. ....... .. .. .. .. ... .. .. ......................................... ",
" ........................................ ...... ......... ..... ........ ...................  ..... .. .. .. .. ..........  ....................................... ",
" ............................................. . .. ... .. ..... .. ..... ......... .. ....... ..... .. .. .. .. ... ....... ....................................... ",
" ....................................... ..... . ...   ....   .. ...   .. ......    ...   ..  ...... .. .. .. .. ....   ..  ........................................ ",
" ............................................... ................................................................................................................... ",
" ............................................... ................................................................................................................... ",
" ................................................................................................................................................................... ",
" ................................................................................................................................................................... ",
" ................................................................................................................................................................... ",
"  .................................................................................................................................................................  ",
".                                                                                                                                                                   ."
};
