/* XPM */
static char *_523452407025[] = {
/* columns rows colors chars-per-pixel */
"165 20 2 1 ",
"  c #00D8DA",
". c None",
/* pixels */
".                                                                                                                                                                   .",
"  .................................................................................................................................................................  ",
" ................................................................................................................................................................... ",
" ................................................................................................................................................................... ",
" ................................................................................. ................................................................................. ",
" ......................................... ....................................... ................................................................................. ",
" ........................................ ........................................ ................................................................................. ",
" .......................................... .................. ................... ..................................... ........................................... ",
" ....................................... .. ...... .. ...... .  ..... .. ...... .. ..... . . ...... .. ... .. ........ .  . . ...................................... ",
" ....................................... .. ..... .... ..... .... ... ........ ... . ... . ....... .... .......... ... .... ........................................ ",
" ........................................... .... .... ..... .... ............ ... . ....... ..... .... .......... .......... ...................................... ",
" ...................................... ......... .......... .... ............ ... . ............. ....... ....... ................................................. ",
" ............................................ ....   ....   ......   ..........    ..   ..   ......   ....    .....   .....   ...................................... ",
" ................................................................................................................................................................... ",
" ................................................................................................................................................................... ",
" ................................................................................................................................................................... ",
" ................................................................................................................................................................... ",
" ................................................................................................................................................................... ",
"  .................................................................................................................................................................  ",
".                                                                                                                                                                   ."
};
