/* XPM */
static char * ADD_BAR_XPM[] = {
"224 25 110 2",
"  	c None",
". 	c #FF0000",
"+ 	c #FF9600",
"@ 	c #18FF00",
"# 	c #FFFFFF",
"$ 	c #14D500",
"% 	c #0C8000",
"& 	c #032A00",
"* 	c #000000",
"= 	c #14DF00",
"- 	c #0E9F00",
"; 	c #085F00",
"> 	c #021F00",
", 	c #D57D00",
"' 	c #804B00",
") 	c #2A1800",
"! 	c #FE9500",
"~ 	c #9B5B00",
"{ 	c #351F00",
"] 	c #0B0600",
"^ 	c #361F00",
"/ 	c #9C5B00",
"( 	c #0B7F00",
"_ 	c #13D400",
": 	c #BF7000",
"< 	c #3F2500",
"[ 	c #D17A00",
"} 	c #472900",
"| 	c #D27B00",
"1 	c #A30000",
"2 	c #260000",
"3 	c #060000",
"4 	c #A50000",
"5 	c #663C00",
"6 	c #6A3E00",
"7 	c #DF8300",
"8 	c #0F0800",
"9 	c #382000",
"0 	c #E08300",
"a 	c #100900",
"b 	c #E18400",
"c 	c #C00000",
"d 	c #680000",
"e 	c #ED0000",
"f 	c #670000",
"g 	c #010000",
"h 	c #C40000",
"i 	c #7F4A00",
"j 	c #D47C00",
"k 	c #B86C00",
"l 	c #BB6E00",
"m 	c #673C00",
"n 	c #BC6E00",
"o 	c #693D00",
"p 	c #F60000",
"q 	c #6B0000",
"r 	c #170000",
"s 	c #4C0000",
"t 	c #D90000",
"u 	c #D80000",
"v 	c #4E0000",
"w 	c #553200",
"x 	c #563200",
"y 	c #231400",
"z 	c #ED8B00",
"A 	c #EB8A00",
"B 	c #241500",
"C 	c #780000",
"D 	c #A60000",
"E 	c #790000",
"F 	c #1D0000",
"G 	c #F70000",
"H 	c #1F0000",
"I 	c #1D1100",
"J 	c #1F1200",
"K 	c #060300",
"L 	c #FD9400",
"M 	c #FC9400",
"N 	c #070400",
"O 	c #210000",
"P 	c #F00000",
"Q 	c #070000",
"R 	c #FE0000",
"S 	c #FD0000",
"T 	c #FB9300",
"U 	c #FC0000",
"V 	c #080000",
"W 	c #F50000",
"X 	c #221400",
"Y 	c #EA8900",
"Z 	c #D70000",
"` 	c #BD6F00",
" .	c #BA6D00",
"..	c #683D00",
"+.	c #770000",
"@.	c #660000",
"#.	c #C30000",
"$.	c #DD8200",
"%.	c #0D0700",
"&.	c #372000",
"*.	c #160000",
"=.	c #A20000",
"-.	c #250000",
";.	c #050000",
">.	c #A40000",
",.	c #CF7900",
"'.	c #452800",
").	c #462900",
"!.	c #D07A00",
"~.	c #0A0500",
". . . . . . . . . . . . . . . . . . . . . . . . . . . . . . . . + + + + + + + + + + + + + + + + + + + + + + + + + + + + + + + + @ @ @ @ @ @ @ @ @ @ @ @ @ @ @ @ @ @ @ @ @ @ @ @ @ @ @ @ @ @ @ @ # # # # # # # # # # # # # # # # # # # # # # # # # # # # # # # # @ @ @ @ @ @ @ @ @ @ @ @ @ @ @ @ @ @ @ @ @ @ @ @ @ @ @ @ @ @ @ @ + + + + + + + + + + + + + + + + + + + + + + + + + + + + + + + + . . . . . . . . . . . . . . . . . . . . . . . . . . . . . . . . ",
". . . . . . . . . . . . . . . . . . . . . . . . . . . . . . . . + + + + + + + + + + + + + + + + + + + + + + + + + + + + + + + + @ @ @ @ @ @ @ @ @ @ @ @ @ @ @ @ @ @ @ @ @ @ @ @ @ @ @ @ @ @ @ @ # # # # # # # # # # # # # # # # # # # # # # # # # # # # # # # # @ @ @ @ @ @ @ @ @ @ @ @ @ @ @ @ @ @ @ @ @ @ @ @ @ @ @ @ @ @ @ @ + + + + + + + + + + + + + + + + + + + + + + + + + + + + + + + + . . . . . . . . . . . . . . . . . . . . . . . . . . . . . . . . ",
". . . . . . . . . . . . . . . . . . . . . . . . . . . . . . . . + + + + + + + + + + + + + + + + + + + + + + + + + + + + + + + + @ @ @ @ @ @ @ @ @ @ @ @ @ @ @ @ @ @ @ @ @ @ @ @ @ @ @ @ @ @ @ @ # # # # # # # # # # # # # # # # # # # # # # # # # # # # # # # # @ @ @ @ @ @ @ @ @ @ @ @ @ @ @ @ @ @ @ @ @ @ @ @ @ @ @ @ @ @ @ @ + + + + + + + + + + + + + + + + + + + + + + + + + + + + + + + + . . . . . . . . . . . . . . . . . . . . . . . . . . . . . . . . ",
". . . . . . . . . . . . . . . . . . . . . . . . . . . . . . . . + + + + + + + + + + + + + + + + + + + + + + + + + + + + + + + + @ @ @ @ @ @ @ @ @ @ @ @ @ @ @ @ @ @ @ @ @ @ @ @ @ @ @ @ @ @ @ @ # # # # # # # # # # # # # # # # # # # # # # # # # # # # # # # # @ @ @ @ @ @ @ @ @ @ @ @ @ @ @ @ @ @ @ @ @ @ @ @ @ @ @ @ @ @ @ @ + + + + + + + + + + + + + + + + + + + + + + + + + + + + + + + + . . . . . . . . . . . . . . . . . . . . . . . . . . . . . . . . ",
". . . . . . . . . . . . . . . . . . . . . . . . . . . . . . . . + + + + + + + + + + + + + + + + + + + + + + + + + + + + + + + + @ @ @ @ @ @ @ @ @ @ @ @ @ @ @ @ @ @ @ @ @ @ @ @ @ @ @ @ @ @ @ @ # # # # # # # # # # # # # # # # # # # # # # # # # # # # # # # # @ @ @ @ @ @ @ @ @ @ @ @ @ @ @ @ @ @ @ $ % & * * * @ @ @ @ @ @ @ + + + + + + + + + + + + + + + + + + + + + + + + + + + + + + + + . . . . . . . . . . . . . . . . . . . . . . . . . . . . . . . . ",
". . . . . . . . . . . . . . . . . . . . . . . . . . . . . . . . + + + + + + + + + + + + + + + + + + + + + + + + + + + + + + + + @ @ @ @ @ @ @ @ @ @ @ @ @ @ @ = - ; > * * * * @ @ @ @ @ @ @ @ @ # # # # # # # # # # # # # # # # # # # # # # # # # # # # # # # # @ @ @ @ @ @ @ @ @ * * @ @ @ @ @ @ @ @ * * * * * * @ @ @ @ @ @ @ + + + + + + + + + + + + + + + + + + + + + + + + + + + + + + + + . . . . . . . . . . . . . . . . . . . . . . . . . . . . . . . . ",
". . . . . . . . . . . . . . . . . . . . . . . . . . . . . . . . + + + + + + + + + , ' ) * * * + + + + + + ! ~ { ] ] ^ / ! + + + @ @ @ @ @ @ @ @ @ @ @ @ @ @ @ * * * * * * * * @ @ @ @ @ @ @ @ @ # # # # # # # # # # # # # # # # # # # # # # # # # # # # # # # # @ @ @ @ @ @ @ @ @ * * @ @ @ @ @ @ @ @ & ( _ * * * @ @ @ @ @ @ @ + + + + + + + + + + + + + + : < * * + + + + + + [ } ] ] } | + + . . . . . . . . . . . . . . . . . . . . . . . . . . . . . . . . ",
". . . . . . . * * * * . . . . . 1 2 3 2 4 . . . . 1 2 3 2 4 . . + + + + + + + + + * * * * * * + + + + + + 5 * * * * * * 6 + + + @ @ @ @ @ @ @ @ @ @ @ @ @ @ @ > ; - = * * * * @ @ @ @ @ @ @ @ @ # # # # # # # # # # # # # # # # # # # # # # # # # # # # # # # # @ @ @ @ @ @ @ @ @ * * @ @ @ @ @ @ @ @ @ @ @ * * * @ @ @ @ @ @ @ + + + + + + + + + + + + + + < : * * + + + + + 7 8 9 0 0 ^ a b + . . . . . . . . . . . . . . . . . . . . . . . . . . . . . . . . ",
". . . . . . . . . * * . . . . c * d e f g h . . c * d e f g h . + + + + + + + + + ) i j * * * + + + + + k * * 9 0 0 ^ * * l + + @ @ @ @ @ @ @ @ @ @ @ @ @ @ @ @ @ @ @ * * * * @ @ @ @ @ @ @ @ @ # # # # # # # # # # # # # # # # # # # # # # # # # # # # # # # # @ @ @ @ @ @ @ @ @ * * @ @ @ @ @ @ @ @ @ @ @ * * * @ @ @ @ @ @ @ + + + + + * * + + + + + + + + + * * + + + + + m * : + + n * o + . . . . . * . . . . * * * * . . . p q r r q p . p q r r q p . . ",
". . . . . . . . . * * . . . . s * t . u * v . . s * t . u * v . + + + + + + + + + + + + * * * + + + + + w * * : + + n * * x + + @ @ @ @ @ @ @ @ @ @ @ @ @ @ @ @ @ @ @ * * * * @ @ @ @ @ @ @ @ @ # # # # # # # # # # # # # # # # # # # # # # # # # # # # # # # # @ @ @ @ @ @ @ @ @ * * @ @ @ @ @ @ @ @ @ @ @ * * * @ @ @ @ @ @ @ + + + + + * * + + + + + + + + + * * + + + + + y * z + + A * B + . . . . . * . . . . . . * * . . . C * 4 D * E . C * 4 D * E . . ",
". . . . . . . . . * * . . . . F * G . p * H . . F * G . p * H . + + + + + + + + + + + + * * * + + + + + I * * z + + A * * J + + @ @ @ @ @ @ @ @ @ @ @ @ @ @ @ @ @ @ @ * * * * @ @ @ @ @ @ @ @ @ # # # # # # # # # # # # # # # # # # # # # # # # # # # # # # # # @ @ @ @ * * * * * * * * * * * * @ @ @ @ @ @ * * * @ @ @ @ @ @ @ + + + + + * * + + + + + + + + + * * + + + + + K * L + + M * N + . . . . . * . . . . . . * * . . . O * P P * O . O * P P * O . . ",
". * * * * . . . . * * . . . . Q * R . S * Q . . Q * R . S * Q . + + + + + + + + + + + + * * * + + + + + K * * L + + M * * N + + @ @ @ @ @ @ @ @ @ @ @ @ @ @ @ @ @ @ @ * * * * @ @ @ @ @ @ @ @ @ # # # # # # # # # # # # # # # # # # # # # # # # # # # # # # # # @ @ @ @ * * * * * * * * * * * * @ @ @ @ @ @ * * * @ @ @ @ @ @ @ + + * * * * * * * * + + + + + + * * + + + + + K * M + + T * N + . . * * * * * * * . . . * * . . . Q * U U * V . Q * U U * V . . ",
". * * * * . . . . * * . . . . F * G . W * H . . F * G . W * H . + * * * * * + + + + + + * * * + + + + + K * * M + + T * * N + + @ @ @ @ @ * * * * * * @ @ @ @ @ @ @ @ * * * * @ @ @ @ @ @ @ @ @ # # # # # # # # # # # # # # # # # # # # # # # # # # # # # # # # @ @ @ @ @ @ @ @ @ * * @ @ @ @ @ @ @ @ @ @ @ * * * @ @ @ @ @ @ @ + + * * * * * * * * + + + + + + * * + + + + + X * A + + Y * B + . . . . . * . . . . . . * * . . . O * P P * O . O * P P * O . . ",
". . . . . . . . . * * . . . . s * Z . Z * v . . s * Z . Z * v . + * * * * * + + + + + + * * * + + + + + I * * A + + Y * * J + + @ @ @ @ @ * * * * * * @ @ @ @ @ @ @ @ * * * * @ @ @ @ @ @ @ @ @ # # # # # # # # # # # # # # # # # # # # # # # # # # # # # # # # @ @ @ @ @ @ @ @ @ * * @ @ @ @ @ @ @ @ @ @ @ * * * @ @ @ @ @ @ @ + + + + + * * + + + + + + + + + * * + + + + + 5 * ` + +  .* ..+ . . . . . * . . . . . . * * . . . +.* 4 4 * C . +.* 4 4 * C . . ",
". . . . . . . . . * * . . . . c * @.e @.g #.. . c * @.e @.g #.. + + + + + + + + + + + + * * * + + + + + w * * ` + +  .* * x + + @ @ @ @ @ * * * * * * @ @ @ @ @ @ @ @ * * * * @ @ @ @ @ @ @ @ @ # # # # # # # # # # # # # # # # # # # # # # # # # # # # # # # # @ @ @ @ @ @ @ @ @ * * @ @ @ @ @ @ @ @ @ @ @ * * * @ @ @ @ @ @ @ + + + + + * * + + + + + + + + + * * + + + + + $.%.&.0 7 { 8 0 + . . . . . * . . . . * * * * * * . W d *.*.d W . W d *.*.d W . . ",
". . . . . . . * * * * * * . . . =.-.;.-.>.. . . . =.-.;.-.>.. . + + + + + + + + + + + + * * * + + + + + k * * &.0 7 { * * l + + @ @ @ @ @ @ @ @ @ @ @ @ @ @ @ @ @ @ @ * * * * @ @ @ @ @ @ @ @ @ # # # # # # # # # # # # # # # # # # # # # # # # # # # # # # # # @ @ @ @ @ @ @ @ @ * * @ @ @ @ @ @ @ @ * * * * * * * * * @ @ @ @ + + + + + * * + + + + + + + * * * * * * + + + + ,.'.] ] ).!.+ + . . . . . . . . . . . . . . . . . . . . . . . . . . . . . . . . ",
". . . . . . . . . . . . . . . . . . . . . . . . . . . . . . . . + + + + + + + + + * * * * * * * * * + + + 5 * * * * * * 6 + + + @ @ @ @ @ @ @ @ @ @ @ @ @ @ @ @ @ @ @ * * * * @ @ @ @ @ @ @ @ @ # # # # # # # # # # # # # # # # # # # # # # # # # # # # # # # # @ @ @ @ @ @ @ @ @ * * @ @ @ @ @ @ @ @ * * * * * * * * * @ @ @ @ + + + + + + + + + + + + + + + + + + + + + + + + + + + + + + + + . . . . . . . . . . . . . . . . . . . . . . . . . . . . . . . . ",
". . . . . . . . . . . . . . . . . . . . . . . . . . . . . . . . + + + + + + + + + * * * * * * * * * + + + ! ~ { ~.~.{ / ! + + + @ @ @ @ @ @ @ @ @ @ @ @ @ @ @ @ @ @ @ * * * * @ @ @ @ @ @ @ @ @ # # # # # # # # # # # # # # # # # # # # # # # # # # # # # # # # @ @ @ @ @ @ @ @ @ @ @ @ @ @ @ @ @ @ @ @ @ @ @ @ @ @ @ @ @ @ @ @ + + + + + + + + + + + + + + + + + + + + + + + + + + + + + + + + . . . . . . . . . . . . . . . . . . . . . . . . . . . . . . . . ",
". . . . . . . . . . . . . . . . . . . . . . . . . . . . . . . . + + + + + + + + + + + + + + + + + + + + + + + + + + + + + + + + @ @ @ @ @ @ @ @ @ @ @ @ @ @ @ @ * * * * * * * * * * @ @ @ @ @ @ # # # # # # # # # # # # # # # # # # # # # # # # # # # # # # # # @ @ @ @ @ @ @ @ @ @ @ @ @ @ @ @ @ @ @ @ @ @ @ @ @ @ @ @ @ @ @ @ + + + + + + + + + + + + + + + + + + + + + + + + + + + + + + + + . . . . . . . . . . . . . . . . . . . . . . . . . . . . . . . . ",
". . . . . . . . . . . . . . . . . . . . . . . . . . . . . . . . + + + + + + + + + + + + + + + + + + + + + + + + + + + + + + + + @ @ @ @ @ @ @ @ @ @ @ @ @ @ @ @ * * * * * * * * * * @ @ @ @ @ @ # # # # # # # # # # # # # # # # # # # # # # # # # # # # # # # # @ @ @ @ @ @ @ @ @ @ @ @ @ @ @ @ @ @ @ @ @ @ @ @ @ @ @ @ @ @ @ @ + + + + + + + + + + + + + + + + + + + + + + + + + + + + + + + + . . . . . . . . . . . . . . . . . . . . . . . . . . . . . . . . ",
". . . . . . . . . . . . . . . . . . . . . . . . . . . . . . . . + + + + + + + + + + + + + + + + + + + + + + + + + + + + + + + + @ @ @ @ @ @ @ @ @ @ @ @ @ @ @ @ @ @ @ @ @ @ @ @ @ @ @ @ @ @ @ @ # # # # # # # # # # # # # # # # # # # # # # # # # # # # # # # # @ @ @ @ @ @ @ @ @ @ @ @ @ @ @ @ @ @ @ @ @ @ @ @ @ @ @ @ @ @ @ @ + + + + + + + + + + + + + + + + + + + + + + + + + + + + + + + + . . . . . . . . . . . . . . . . . . . . . . . . . . . . . . . . ",
". . . . . . . . . . . . . . . . . . . . . . . . . . . . . . . . + + + + + + + + + + + + + + + + + + + + + + + + + + + + + + + + @ @ @ @ @ @ @ @ @ @ @ @ @ @ @ @ @ @ @ @ @ @ @ @ @ @ @ @ @ @ @ @ # # # # # # # # # # # # # # # # # # # # # # # # # # # # # # # # @ @ @ @ @ @ @ @ @ @ @ @ @ @ @ @ @ @ @ @ @ @ @ @ @ @ @ @ @ @ @ @ + + + + + + + + + + + + + + + + + + + + + + + + + + + + + + + + . . . . . . . . . . . . . . . . . . . . . . . . . . . . . . . . ",
". . . . . . . . . . . . . . . . . . . . . . . . . . . . . . . . + + + + + + + + + + + + + + + + + + + + + + + + + + + + + + + + @ @ @ @ @ @ @ @ @ @ @ @ @ @ @ @ @ @ @ @ @ @ @ @ @ @ @ @ @ @ @ @ # # # # # # # # # # # # # # # # # # # # # # # # # # # # # # # # @ @ @ @ @ @ @ @ @ @ @ @ @ @ @ @ @ @ @ @ @ @ @ @ @ @ @ @ @ @ @ @ + + + + + + + + + + + + + + + + + + + + + + + + + + + + + + + + . . . . . . . . . . . . . . . . . . . . . . . . . . . . . . . . ",
". . . . . . . . . . . . . . . . . . . . . . . . . . . . . . . . + + + + + + + + + + + + + + + + + + + + + + + + + + + + + + + + @ @ @ @ @ @ @ @ @ @ @ @ @ @ @ @ @ @ @ @ @ @ @ @ @ @ @ @ @ @ @ @ # # # # # # # # # # # # # # # # # # # # # # # # # # # # # # # # @ @ @ @ @ @ @ @ @ @ @ @ @ @ @ @ @ @ @ @ @ @ @ @ @ @ @ @ @ @ @ @ + + + + + + + + + + + + + + + + + + + + + + + + + + + + + + + + . . . . . . . . . . . . . . . . . . . . . . . . . . . . . . . . ",
". . . . . . . . . . . . . . . . . . . . . . . . . . . . . . . . + + + + + + + + + + + + + + + + + + + + + + + + + + + + + + + + @ @ @ @ @ @ @ @ @ @ @ @ @ @ @ @ @ @ @ @ @ @ @ @ @ @ @ @ @ @ @ @ # # # # # # # # # # # # # # # # # # # # # # # # # # # # # # # # @ @ @ @ @ @ @ @ @ @ @ @ @ @ @ @ @ @ @ @ @ @ @ @ @ @ @ @ @ @ @ @ + + + + + + + + + + + + + + + + + + + + + + + + + + + + + + + + . . . . . . . . . . . . . . . . . . . . . . . . . . . . . . . . "};
