/* XPM */
static char *_524156548377[] = {
/* columns rows colors chars-per-pixel */
"275 35 16 1 ",
"  c #006868",
". c #007475",
"X c #007F80",
"o c #008989",
"O c #009192",
"+ c #009A9B",
"@ c #00A2A2",
"# c #00A9AA",
"$ c #00B0B1",
"% c #00B6B7",
"& c #00BDBE",
"* c #00C3C4",
"= c #00C8C9",
"- c #00CECF",
"; c #00D3D4",
": c #00D8DA",
/* pixels */
"                                                                                                                                                                                                                                                                                   ",
"                                                                                                                                                                                                                                                                                   ",
"                                                                                                                                                                                                                                                                                   ",
"                                                                                                                                                                                                                                                                                   ",
"                                                                                                                                                                                                                                                                                   ",
"                                                                                                                                                                                                                                                                                   ",
"                                                                                                                                                                                                                                                                                   ",
"                                                                                                                                                                                                                                                                                   ",
"                                      X##@                                                                                                                                                                                                                                         ",
"                                     @;-*;=.       @#                                                                                                                                                                                                                              ",
"                                     ;$  .*O      O:o              X;+                                                                                                                                                                                                             ",
"                                    O:.           =@               .&o                                                                                                                                                                                                             ",
"                                    o:X          #%                                                                                                                                                                                                                #o      #o      ",
"                                     ==.                                                                                                                                                                                                                           =;o    %:+      ",
"                                     .=-@       @=:;%.   *o#;:=+    *o    #-:;#o*                                                                                                                                                                                  .=;o  %:@       ",
"                                       #;=o    #=O X%=.  :*#. @;+   :O   #;O .#=:                                                                                                                                                                                   .=;o%:@        ",
"                                        .$:@  X:o    =@  :*    #-   :O  X:O    %:                                                                                                                                                                                    .=::@         ",
"                                          #;  @;OOOOO%&  :@    X:o  :O  #-     +:                                                                                                                                                                                     %:;o         ",
"                                          .:O #;******$  :O     :O  :O  #*     O:                                                                                                                                                                                    %:#=;o        ",
"                                     .     :O #=         :+     :O  :O  #*     +:                                                                                                                                                                                   %:@ .=;o       ",
"                                    %#    +:. o:X    O+  :%    +;   :O  o:.    %:                                                                                                                                                                                  %:@   .=;o      ",
"                                    o:#. +;%   &=.  o;@  :-@  .=#   :O   *%.  @;:                                                                                                                                                                                  &@     .&+      ",
"                                     +;:::%.   .%:*=;@   :+*-*;$    :O   .&;*=*+:                                                                                                                                                                                                  ",
"                                       OO.       .OO     :O oOX            XOo                                                                                                                                                                                                     ",
"                                                         :O                                                                                                                                                                                                                        ",
"                                                         :O                                                                                                                                                                                                                        ",
"                                                         :O                                                                                                                                                                                                                        ",
"                                                         O.                                                                                                                                                                                                                        ",
"                                                                                                                                                                                                                                                                                   ",
"                                                                                                                                                                                                                                                                                   ",
"                                                                                                                                                                                                                                                                                   ",
"                                                                                                                                                                                                                                                                                   ",
"                                                                                                                                                                                                                                                                                   ",
"                                                                                                                                                                                                                                                                                   ",
":::::::::::::::::::::::::::::::::::::::::::::::::::::::::::::::::::::::::::::::::::::::::::::::::::::::::::::::::::::::::::::::::::::::::::::::::::::::::::::::::::::::::::::::::::::::::::::::::::::::::::::::::::::::::::::::::::::::::::::::::::::::::::::::::::::::::::::::::::"
};
